<?xml version="1.0" standalone="no"?>
<!DOCTYPE svg PUBLIC "-//W3C//DTD SVG 20010904//EN"
 "http://www.w3.org/TR/2001/REC-SVG-20010904/DTD/svg10.dtd">
<svg version="1.0" xmlns="http://www.w3.org/2000/svg"
 width="32.000000pt" height="32.000000pt" viewBox="0 0 32.000000 32.000000"
 preserveAspectRatio="xMidYMid meet">

<g transform="translate(0.000000,32.000000) scale(0.100000,-0.100000)"
fill="#000000" stroke="none">
<path d="M73 301 c-25 -12 -48 -32 -57 -50 -20 -37 -20 -43 0 -89 9 -20 16
-48 15 -62 -4 -52 82 -107 147 -95 19 4 45 13 57 21 23 15 50 63 40 72 -3 3 5
16 17 29 16 17 23 36 23 65 0 33 -6 45 -37 73 -60 55 -134 68 -205 36z m146
-29 c77 -39 90 -104 28 -142 -64 -39 -178 -14 -206 46 -36 80 83 145 178 96z
m-55 -194 c23 0 53 3 65 7 21 6 22 5 12 -14 -23 -42 -87 -54 -141 -26 -25 13
-50 42 -50 59 0 3 16 -2 36 -10 19 -8 54 -15 78 -16z"/>
</g>
</svg>
