<?xml version="1.0" encoding="UTF-8" standalone="no"?>
<svg
   version="1.1"
   id="Layer_1"
   x="0px"
   y="0px"
   width="100%"
   viewBox="0 0 1483 805"
   enable-background="new 0 0 1483 805"
   xml:space="preserve"
   sodipodi:docname="logo_traces.svg"
   inkscape:version="1.1.2 (0a00cf5339, 2022-02-04)"
   xmlns:inkscape="http://www.inkscape.org/namespaces/inkscape"
   xmlns:sodipodi="http://sodipodi.sourceforge.net/DTD/sodipodi-0.dtd"
   xmlns="http://www.w3.org/2000/svg"
   xmlns:svg="http://www.w3.org/2000/svg"><defs
   id="defs353" /><sodipodi:namedview
   id="namedview351"
   pagecolor="#ffffff"
   bordercolor="#666666"
   borderopacity="1.0"
   inkscape:pageshadow="2"
   inkscape:pageopacity="0.0"
   inkscape:pagecheckerboard="0"
   showgrid="false"
   inkscape:lockguides="false"
   inkscape:zoom="1"
   inkscape:cx="252.5"
   inkscape:cy="471.5"
   inkscape:window-width="3750"
   inkscape:window-height="2096"
   inkscape:window-x="90"
   inkscape:window-y="27"
   inkscape:window-maximized="1"
   inkscape:current-layer="Layer_1" />

<path
   fill="#6792B9"
   opacity="1.000000"
   stroke="none"
   d=" M1306.000000,661.655640   C1115.368652,661.428467 925.237244,661.211670 735.105835,660.986633   C639.622864,660.873596 544.139893,660.747498 448.656952,660.611877   C446.329071,660.608521 443.926392,660.754883 441.689972,660.249756   C437.496552,659.302551 435.005310,656.599731 435.142059,652.076904   C435.279572,647.529358 438.012848,645.111084 442.221222,644.348450   C444.160919,643.996948 446.209167,644.221313 448.208160,644.223755   C684.331238,644.509827 920.454285,644.800049 1156.577393,645.089111   C1231.896851,645.181274 1307.216431,645.266663 1382.535889,645.382629   C1384.857422,645.386169 1387.226807,645.457703 1389.489258,645.915649   C1393.424683,646.712341 1395.548828,649.450012 1395.628174,653.363708   C1395.706543,657.238708 1393.816040,660.141296 1389.908325,661.155945   C1388.007690,661.649475 1385.963135,661.753479 1383.983765,661.753418   C1358.155884,661.752502 1332.327881,661.701233 1306.000000,661.655640  z"
   id="path4" /><path
   fill="#6792b9"
   opacity="1"
   stroke="none"
   d="m 569.30344,504.48318 c -112.73001,-0.22717 -225.16445,-0.44397 -337.59885,-0.66901 -56.46396,-0.11303 -112.92791,-0.23913 -169.391843,-0.37475 -1.376595,-0.003 -2.797422,0.143 -4.119931,-0.36212 -2.479784,-0.94721 -3.952981,-3.65003 -3.872114,-8.17286 0.08132,-4.54754 1.697645,-6.96582 4.186269,-7.72845 1.147044,-0.3515 2.358278,-0.12714 3.540383,-0.1247 139.631626,0.28608 279.263236,0.5763 418.894886,0.86536 44.54026,0.0922 89.08052,0.17755 133.62077,0.29352 1.37282,0.004 2.77397,0.0751 4.1119,0.53302 2.3272,0.79669 3.58329,3.53436 3.63025,7.44806 0.0461,3.875 -1.07165,6.77759 -3.38247,7.79223 -1.12393,0.49354 -2.333,0.59754 -3.50346,0.59748 -15.27335,-9.2e-4 -30.54675,-0.0522 -46.11579,-0.0978 z"
   id="path4-6"
   style="fill:#64c881;fill-opacity:1;stroke-width:0.768993" />
<path
   fill="#E07A78"
   opacity="1.000000"
   stroke="none"
   d=" M973.204956,443.059875   C973.260193,443.442749 973.315430,443.825653 973.382202,444.882294   C974.095581,449.551941 974.797424,453.547882 975.499329,457.543793   C976.099609,457.524170 976.699829,457.504547 977.300110,457.484894   C977.970886,454.709534 978.641724,451.934143 979.312500,449.158752   C993.691895,418.356964 1007.659607,387.353363 1022.619751,356.836273   C1030.421387,340.921783 1045.367798,333.394501 1062.220703,333.311646   C1158.018555,332.840790 1253.820312,333.162872 1349.620728,333.242279   C1351.938965,333.244202 1354.300293,333.338348 1356.565308,333.780334   C1360.445312,334.537537 1362.657349,337.035309 1362.914795,341.043823   C1363.188477,345.309723 1361.016968,348.074310 1357.121704,349.309906   C1355.275635,349.895538 1353.194702,349.899231 1351.220093,349.898712   C1260.751343,349.875031 1170.282593,349.902802 1079.814087,349.708160   C1060.029175,349.665588 1044.924683,358.274109 1033.305054,373.510132   C1013.111267,399.988861 1000.205811,430.346893 987.697510,460.869080   C974.151917,493.922363 965.386719,528.132507 964.027710,563.947937   C963.657227,573.712463 964.518188,583.554199 965.303284,593.321167   C965.798157,599.477051 962.764282,606.305176 958.464172,606.776978   C954.197266,607.245117 949.176270,601.022522 949.412659,594.868225   C950.494446,566.702881 953.625305,538.819885 959.403809,511.157043   C961.581421,500.732635 960.802917,489.684143 961.301758,478.916870   C962.722229,448.252686 953.483643,420.517639 937.979431,394.531158   C930.147339,381.403961 920.532959,369.622437 908.575500,360.193329   C903.246948,355.991394 896.198120,353.970978 889.342407,350.638550   C888.098511,350.262665 887.442261,350.208679 886.786011,350.154663   C886.423035,350.119659 886.060120,350.084686 885.046997,349.839050   C882.249817,349.463409 880.103699,349.168365 877.955688,349.154266   C862.477234,349.052551 846.998352,349.007782 831.519653,348.944946   C831.670837,348.478821 831.822083,348.012695 832.187927,347.108521   C832.402527,346.670410 832.289734,346.396240 832.289734,346.396240   C832.827393,344.764679 833.365051,343.133087 834.148987,340.960388   C834.403076,339.917908 834.410828,339.416565 834.418579,338.915192   C834.584839,338.462585 834.751038,338.009979 835.130188,337.078644   C835.314392,336.069183 835.285583,335.538422 835.256836,335.007660   C835.319458,334.677002 835.382141,334.346344 835.808044,333.688171   C837.831299,333.214661 839.491394,333.068695 841.151428,332.922729   C857.080933,332.955322 873.010498,332.987915 889.799194,333.110046   C892.836304,333.462250 895.014099,333.724976 897.191956,333.987701   C897.191956,333.987701 897.407837,334.089874 897.721313,334.309814   C898.406982,334.587891 898.779175,334.646027 899.151367,334.704132   C912.371277,339.264679 924.656982,344.417175 933.021240,357.180389   C947.006470,378.520905 959.716553,400.343964 967.865601,424.617676   C968.499023,426.504303 969.015442,428.430206 969.757263,431.087830   C971.020508,435.578522 972.112732,439.319183 973.204956,443.059875  z"
   id="path6" />
<path
   fill="#E77C79"
   opacity="1.000000"
   stroke="none"
   d=" M461.074036,330.857056   C461.055328,330.484833 461.036621,330.112579 461.009155,329.050964   C459.724609,323.155334 458.448853,317.949066 457.173065,312.742828   C454.002319,298.868652 450.831573,284.994476 447.426056,270.092926   C443.749115,278.490173 440.718994,286.131073 437.109863,293.487915   C431.321747,305.286652 426.044006,317.479980 418.904022,328.433197   C410.822052,340.831482 399.102966,349.020691 383.388702,349.029449   C278.086060,349.088074 172.783417,349.075195 67.480774,349.083069   C65.314888,349.083252 63.144394,349.139099 60.984039,349.021759   C55.839645,348.742401 52.226463,345.171875 52.331718,340.579407   C52.439342,335.883728 56.011105,332.832855 61.388710,332.837494   C91.046562,332.862915 120.704422,332.903320 150.362274,332.908905   C232.671692,332.924438 314.981140,332.898529 397.290436,333.010193   C401.453339,333.015839 404.304871,332.000885 406.989319,328.583588   C422.077179,309.376587 431.950623,287.483032 441.265045,265.130371   C446.343109,252.944107 444.383789,240.593124 444.971313,228.256012   C445.169250,224.099380 444.983551,219.925903 445.062469,215.761810   C445.141846,211.574448 447.266754,208.118134 451.316895,207.998001   C455.930023,207.861176 460.824829,208.763657 465.112427,210.448273   C466.731171,211.084259 468.424866,215.768829 467.660736,217.592285   C456.786652,243.542740 463.513763,269.098633 469.316803,294.521545   C471.931305,305.975616 476.467468,316.982635 479.894165,328.264618   C481.005493,331.923584 482.900574,333.043457 486.701294,333.037842   C554.181458,332.938080 621.661804,332.986359 689.142151,333.000641   C707.117676,333.004456 725.093201,333.001190 744.132507,333.001190   C739.927490,338.664673 736.217224,343.661865 731.869751,348.904968   C730.568848,349.104706 729.905029,349.018311 729.241272,349.018066   C666.435974,348.993225 603.630615,348.959137 540.825317,348.965240   C520.173462,348.967224 499.521637,349.074310 478.869781,349.133301   C478.479980,349.105011 478.090149,349.076721 477.094849,348.869873   C473.958099,347.661530 471.426819,346.631805 468.895569,345.602112   C468.895569,345.602112 468.738678,345.327545 468.511597,344.931671   C466.183105,341.324249 464.081726,338.112732 461.980316,334.901184   C461.962585,334.520020 461.944855,334.138824 461.943604,333.156494   C461.664734,331.989258 461.369385,331.423157 461.074036,330.857056  z"
   id="path8" />
<path
   fill="#e57c79"
   opacity="1"
   stroke="none"
   d="m 833.88209,347.76551 c -0.40018,0.30573 -0.80024,0.61145 -2.36244,1.17944 -45.97036,0.30811 -90.77897,0.38041 -135.58685,0.32343 -2.29877,-0.003 -4.59211,-1.11435 -6.88804,-1.70969 13.9875,-11.71908 33.57486,-15.70312 60.47238,-14.54571 30.91868,1.33044 62.21625,0.30884 94.85196,0.30884 -2.88828,4.16894 -5.44171,7.85473 -8.64901,12.02063 -1.04851,1.12777 -1.44325,1.77542 -1.838,2.42306 z"
   id="path10"
   style="stroke-width:1.39112" />














































































































































<path
   fill="#393939"
   opacity="1.000000"
   stroke="none"
   d=" M898.958130,334.488708   C898.779175,334.646027 898.406982,334.587891 897.840698,334.309265   C898.019409,334.150299 898.392151,334.211792 898.958130,334.488708  z"
   id="path296" />





















<path
   fill="#71B085"
   opacity="1.000000"
   stroke="none"
   d=" M529.629517,488.030884   C528.547729,488.158356 527.040039,488.274994 525.239014,488.213837   C526.365051,488.030731 527.784363,488.025421 529.629517,488.030884  z"
   id="path340" />
<path
   fill="#71B085"
   opacity="1.000000"
   stroke="none"
   d=" M536.622375,488.039124   C535.542480,488.166290 534.037659,488.281342 532.239319,488.220490   C533.363037,488.038696 534.780212,488.032837 536.622375,488.039124  z"
   id="path342" />



<g
   transform="matrix(0.10010431,0,0,-0.10151797,2.8277685,807.25445)"
   fill="#000000"
   stroke="none"
   id="g18"><path
     d="m 4584,7081 c -310,-30 -531,-240 -364,-348 19,-12 53,-36 75,-52 38,-27 120,-61 149,-61 8,0 29,-6 47,-14 l 34,-14 -29,-11 c -52,-21 -88,-53 -108,-100 -24,-56 -18,-102 17,-130 85,-66 343,-45 422,34 36,36 40,54 21,88 -7,12 -17,40 -23,62 -8,32 -18,44 -50,59 l -40,20 65,12 c 131,25 252,80 320,145 87,84 56,168 -70,188 -45,8 -63,17 -100,53 -28,26 -63,49 -90,57 -56,17 -171,22 -276,12 z m 89,-72 c 21,-6 48,-20 60,-32 l 21,-21 -80,-18 c -43,-10 -115,-25 -159,-34 -134,-26 -153,-33 -175,-64 l -21,-30 22,-31 22,-32 -39,7 c -42,8 -54,19 -54,51 0,69 126,155 293,200 65,17 64,17 110,4 z m -429,-144 c -7,-19 -14,-44 -14,-55 0,-24 -15,-27 -24,-4 -9,25 -8,31 20,63 33,40 36,39 18,-4 z m 806,-1 c 0,-8 -17,-33 -37,-56 -38,-41 -144,-99 -210,-112 l -31,-7 19,39 c 15,29 32,45 69,62 26,12 67,42 90,65 39,40 45,42 71,33 16,-5 29,-16 29,-24 z m -597,-181 c -7,-2 -19,-2 -25,0 -7,3 -2,5 12,5 14,0 19,-2 13,-5 z"
     id="path2" /><path
     d="m 2923,6819 c -60,-11 -100,-35 -154,-91 -60,-63 -86,-115 -98,-198 -17,-120 -95,-304 -334,-784 -81,-165 -191,-377 -243,-472 -101,-186 -113,-225 -74,-264 24,-24 32,-24 68,-6 42,22 57,44 97,146 33,83 277,595 290,608 10,11 179,-82 258,-141 159,-120 438,-409 535,-555 37,-56 91,-92 136,-92 35,0 60,39 51,81 -14,61 -473,550 -652,694 l -62,50 100,47 c 175,83 299,189 382,329 82,138 103,301 57,424 -32,82 -133,185 -205,208 -70,22 -104,25 -152,16 z m 95,-161 c 128,-79 151,-281 50,-447 -63,-103 -211,-222 -345,-276 -65,-26 -143,-38 -158,-23 -10,10 144,304 263,501 99,164 120,215 109,258 -5,18 -2,20 21,14 15,-4 42,-16 60,-27 z"
     id="path4-3" /><path
     d="m 5628,6469 c -47,-24 -59,-47 -92,-188 -26,-109 -210,-616 -240,-664 -8,-12 -22,-47 -31,-77 -9,-30 -55,-161 -101,-291 -85,-239 -96,-287 -69,-309 16,-14 131,-5 141,11 3,5 31,9 64,9 128,0 320,87 450,204 129,117 212,286 194,401 -21,140 -147,220 -338,213 -53,-2 -96,0 -96,4 0,23 154,341 245,506 46,84 46,123 1,168 -40,40 -72,43 -128,13 z m 142,-825 c 113,-33 137,-102 80,-223 -39,-82 -97,-151 -174,-205 -125,-89 -220,-120 -330,-110 l -68,7 6,38 c 3,21 16,70 29,110 18,59 28,76 52,89 37,21 75,75 75,108 0,43 22,99 52,136 50,61 169,82 278,50 z"
     id="path6-6" /><path
     d="m 6431,5675 c -119,-56 -236,-222 -282,-402 -22,-88 -23,-104 -8,-173 39,-181 252,-210 482,-67 252,158 358,402 235,543 -38,43 -67,58 -144,78 -32,8 -77,21 -99,30 -60,23 -122,20 -184,-9 z m 375,-160 c 75,-49 43,-175 -74,-291 -122,-121 -286,-189 -366,-153 -64,30 -77,178 -17,200 41,16 80,59 92,101 17,66 103,134 196,158 51,12 139,5 169,-15 z"
     id="path8-7" /><path
     d="m 7872,5081 c -267,-99 -581,-466 -827,-966 -119,-243 -190,-431 -250,-670 -124,-488 -132,-878 -21,-1046 93,-141 288,-158 479,-42 32,19 106,70 165,112 59,42 169,116 244,164 75,48 153,106 173,128 43,48 45,82 3,87 -21,3 -67,-25 -205,-121 -98,-68 -215,-151 -260,-184 -224,-166 -355,-191 -459,-88 -64,64 -85,141 -91,326 -13,386 113,881 334,1309 82,159 237,399 305,471 24,25 84,91 134,145 150,163 298,253 431,262 93,6 152,-11 205,-58 40,-35 42,-40 46,-101 7,-107 -52,-248 -146,-352 -118,-129 -141,-189 -76,-195 37,-4 76,26 127,96 56,76 143,243 157,301 16,67 8,201 -14,254 -26,61 -89,121 -159,153 -84,38 -215,44 -295,15 z"
     id="path10-5" /><path
     d="m 8785,4083 c -43,-22 -114,-92 -135,-133 -9,-19 -32,-87 -49,-150 -61,-217 -212,-588 -393,-962 -80,-164 -90,-190 -84,-222 9,-49 45,-73 85,-56 48,19 68,50 106,160 56,160 177,441 192,447 24,9 148,-84 254,-190 103,-103 228,-260 280,-353 22,-39 41,-58 73,-73 23,-12 50,-21 59,-21 30,0 57,37 57,78 0,35 -15,58 -147,223 -82,101 -195,232 -252,292 -57,59 -102,109 -100,111 2,2 32,18 67,36 247,130 393,450 299,655 -33,71 -87,130 -142,156 -49,23 -129,24 -170,2 z m 122,-195 c 39,-58 44,-167 14,-249 -31,-82 -93,-162 -165,-214 -64,-45 -162,-93 -172,-83 -8,8 123,278 193,398 34,58 68,124 75,148 7,23 16,42 20,42 4,0 20,-19 35,-42 z"
     id="path12-3" /><path
     d="m 10642,4062 c -62,-23 -102,-57 -134,-119 l -23,-44 24,-20 c 21,-18 22,-22 12,-66 -5,-27 -22,-129 -36,-228 -42,-293 -161,-800 -220,-943 -31,-72 -10,-152 40,-152 30,0 79,41 93,77 6,16 26,102 46,193 20,91 58,252 84,359 l 47,194 110,29 c 149,39 294,111 366,180 96,92 125,178 95,281 -54,185 -323,323 -504,259 z m 220,-164 c 80,-44 120,-97 120,-160 0,-25 -7,-59 -15,-75 -39,-74 -169,-161 -294,-197 -45,-13 -53,-13 -53,-1 0,8 27,89 61,182 67,187 70,215 22,266 l -28,30 62,-6 c 46,-4 80,-15 125,-39 z"
     id="path14" /><path
     d="m 11527,4022 c -50,-52 -25,-111 56,-133 29,-8 76,-6 183,5 133,15 244,20 244,13 0,-2 -11,-40 -24,-84 -13,-44 -38,-143 -56,-219 -27,-120 -157,-591 -277,-1002 -32,-111 -35,-127 -24,-162 21,-69 61,-73 113,-11 18,21 30,55 42,123 46,256 174,691 283,963 103,259 133,351 127,384 l -6,28 104,7 c 56,4 180,6 273,5 133,-1 178,2 206,14 20,8 40,20 43,26 12,18 -3,47 -30,59 -36,17 -325,15 -534,-4 -260,-23 -492,-24 -553,-1 -26,9 -69,17 -95,17 -40,0 -53,-5 -75,-28 z"
     id="path16-5" /></g></svg>
