<?xml version="1.0" encoding="UTF-8" standalone="no"?>
<svg
   version="1.1"
   id="Layer_1"
   x="0px"
   y="0px"
   width="100%"
   viewBox="0 0 1483 805"
   enable-background="new 0 0 1483 805"
   xml:space="preserve"
   sodipodi:docname="logo_traces_update_with_slogan.svg"
   inkscape:version="1.1.2 (0a00cf5339, 2022-02-04)"
   inkscape:export-filename="/home/mswirski/Documents/RiboCrypt/logo_traces_update_with_slogan.png"
   inkscape:export-xdpi="96"
   inkscape:export-ydpi="96"
   xmlns:inkscape="http://www.inkscape.org/namespaces/inkscape"
   xmlns:sodipodi="http://sodipodi.sourceforge.net/DTD/sodipodi-0.dtd"
   xmlns="http://www.w3.org/2000/svg"
   xmlns:svg="http://www.w3.org/2000/svg"><defs
   id="defs353"><rect
     x="120.78354"
     y="535.47871"
     width="1473.8016"
     height="204.5555"
     id="rect3403" /><linearGradient
     id="linearGradient943"
     inkscape:swatch="solid"><stop
       style="stop-color:#000000;stop-opacity:1;"
       offset="0"
       id="stop941" /></linearGradient><linearGradient
     id="linearGradient915"
     inkscape:swatch="solid"><stop
       style="stop-color:#000000;stop-opacity:1;"
       offset="0"
       id="stop913" /></linearGradient><rect
     x="120.78354"
     y="535.4787"
     width="1473.8016"
     height="204.5555"
     id="rect3403-0" /></defs><sodipodi:namedview
   id="namedview351"
   pagecolor="#ffffff"
   bordercolor="#666666"
   borderopacity="1.0"
   inkscape:pageshadow="2"
   inkscape:pageopacity="0.0"
   inkscape:pagecheckerboard="0"
   showgrid="false"
   inkscape:lockguides="false"
   inkscape:zoom="1.4142136"
   inkscape:cx="477.29708"
   inkscape:cy="295.21708"
   inkscape:window-width="3750"
   inkscape:window-height="2096"
   inkscape:window-x="90"
   inkscape:window-y="27"
   inkscape:window-maximized="1"
   inkscape:current-layer="Layer_1" />














































































































































































<text
   xml:space="preserve"
   id="text3401"
   style="font-style:normal;font-weight:normal;font-size:40px;line-height:1.25;font-family:sans-serif;white-space:pre;shape-inside:url(#rect3403-0);fill:#000000;fill-opacity:1;stroke:none;stroke-width:1;stroke-miterlimit:4;stroke-dasharray:none"
   transform="matrix(1.0144715,0,0,1.0144715,-55.923408,113.1463)"><tspan
     x="120.7832"
     y="582.67861"
     id="tspan114595"><tspan
       style="font-size:52.5725px;font-family:Laksaman;-inkscape-font-specification:'Laksaman, Normal'"
       id="tspan114593">Exploring cryptic information in Ribosome Profiling data</tspan></tspan></text><g
   id="g114561"
   transform="matrix(1.0111071,0,0,1.0111071,-15.844385,-0.41438739)"><path
     fill="#6792b9"
     opacity="1"
     stroke="none"
     d="m 1335.6696,594.87343 c -193.2044,-0.23023 -385.90237,-0.44996 -578.60022,-0.67804 -96.77182,-0.11455 -193.54364,-0.24235 -290.31544,-0.3798 -2.35929,-0.003 -4.79441,0.14493 -7.06101,-0.36701 -4.25003,-0.96 -6.7749,-3.69931 -6.6363,-8.28318 0.13937,-4.60893 2.90954,-7.05985 7.17472,-7.83277 1.96588,-0.35625 4.04177,-0.12886 6.06775,-0.12638 239.31033,0.28994 478.62062,0.58407 717.9309,0.87703 76.3363,0.0935 152.6724,0.17995 229.0086,0.29748 2.3529,0.004 4.7542,0.0761 7.0472,0.54023 3.9885,0.80744 6.1414,3.58206 6.2219,7.54859 0.079,3.9273 -1.8367,6.86907 -5.7972,7.89741 -1.9262,0.50021 -3.9984,0.60561 -6.0044,0.60554 -26.1766,-9.1e-4 -52.3532,-0.0529 -79.0365,-0.0991 z"
     id="path4"
     style="stroke-width:1.0135" /><path
     fill="#6792b9"
     opacity="1"
     stroke="none"
     d="m 589.02895,435.57942 c -114.25167,-0.23023 -228.20377,-0.44996 -342.15584,-0.67803 -57.22612,-0.11456 -114.45223,-0.24237 -171.678331,-0.37981 -1.395176,-0.003 -2.835182,0.14492 -4.175542,-0.36701 -2.513257,-0.96 -4.006339,-3.6993 -3.924381,-8.28318 0.08242,-4.60893 1.72056,-7.05984 4.242776,-7.83277 1.162528,-0.35625 2.390111,-0.12886 3.588172,-0.12638 141.516406,0.28993 283.032796,0.58407 424.549226,0.87704 45.14148,0.0934 90.28295,0.17994 135.42441,0.29748 1.39135,0.004 2.81142,0.0761 4.16741,0.54021 2.35861,0.80745 3.63166,3.58207 3.67925,7.5486 0.0467,3.9273 -1.08611,6.86907 -3.42813,7.89741 -1.1391,0.5002 -2.36449,0.60561 -3.55075,0.60554 -15.47951,-9.2e-4 -30.95908,-0.0529 -46.73827,-0.0991 z"
     id="path4-6"
     style="fill:#64c881;fill-opacity:1;stroke-width:0.779373" /><path
     fill="#e07a78"
     opacity="1"
     stroke="none"
     d="m 998.3824,373.327 c 0.0561,0.38806 0.11202,0.77612 0.17966,1.84702 0.72302,4.73268 1.43429,8.78257 2.14574,12.83242 0.6083,-0.0199 1.2167,-0.0397 1.825,-0.0597 0.6799,-2.81282 1.3598,-5.62567 2.0396,-8.43852 14.5735,-31.21757 28.7297,-62.63966 43.8919,-93.56868 7.9069,-16.12931 23.055,-23.75819 40.1354,-23.84216 97.091,-0.47721 194.1859,-0.15078 291.2794,-0.0703 2.3496,0.002 4.7428,0.0974 7.0384,0.54531 3.9323,0.76743 6.1742,3.29892 6.4352,7.36154 0.2773,4.32348 -1.9235,7.12539 -5.8713,8.37767 -1.871,0.59353 -3.98,0.59727 -5.9813,0.59675 -91.69,-0.024 -183.3798,0.004 -275.0695,-0.19312 -20.052,-0.0432 -35.3604,8.68157 -47.1368,24.12325 -20.4664,26.83615 -33.5461,57.60396 -46.2232,88.53814 -13.72845,33.49944 -22.61191,68.17137 -23.98932,104.47024 -0.37549,9.89633 0.49715,19.87091 1.29277,29.76972 0.50156,6.23898 -2.57324,13.15927 -6.93134,13.63744 -4.32454,0.47446 -9.41331,-5.83214 -9.17374,-12.0695 1.0964,-28.54553 4.26952,-56.8049 10.12604,-84.84114 2.20695,-10.56512 1.41794,-21.76275 1.92354,-32.67536 1.43963,-31.07809 -7.92365,-59.18751 -23.63713,-85.52477 -7.93782,-13.30439 -17.68197,-25.24494 -29.80083,-34.80132 -5.40048,-4.25866 -12.54446,-6.30634 -19.49271,-9.68376 -1.26069,-0.38095 -1.9258,-0.43567 -2.5909,-0.49041 -0.36788,-0.0355 -0.73569,-0.0709 -1.76249,-0.31988 -2.83493,-0.38071 -5.01003,-0.67974 -7.18703,-0.69402 -15.68739,-0.10309 -31.37521,-0.14847 -47.06284,-0.21215 0.15323,-0.47242 0.30651,-0.94484 0.6773,-1.86121 0.21749,-0.44403 0.10317,-0.7219 0.10317,-0.7219 0.54491,-1.65358 1.08983,-3.3072 1.88435,-5.50923 0.25753,-1.05655 0.26539,-1.56466 0.27323,-2.0728 0.16851,-0.45872 0.33695,-0.91743 0.72122,-1.86134 0.18669,-1.02308 0.15749,-1.56101 0.12836,-2.09893 0.0634,-0.33513 0.12699,-0.67025 0.55864,-1.33731 2.05057,-0.4799 3.73307,-0.62784 5.41552,-0.77577 16.14452,0.0331 32.28911,0.0661 49.30442,0.18985 3.07811,0.35696 5.2853,0.62323 7.49256,0.8895 0,0 0.21879,0.10354 0.5365,0.32645 0.69491,0.28183 1.07213,0.34077 1.44936,0.39964 13.39835,4.62211 25.84989,9.84415 34.32705,22.77966 14.17401,21.62857 27.05566,43.7462 35.3147,68.34757 0.64197,1.91209 1.16531,3.86399 1.9172,6.55748 1.28027,4.55131 2.38724,8.34247 3.4942,12.13365 z"
     id="path6"
     style="stroke-width:1.0135" /><path
     fill="#e77c79"
     opacity="1"
     stroke="none"
     d="m 479.33864,259.60966 c -0.0189,-0.37726 -0.0379,-0.75453 -0.0658,-1.83048 -1.3019,-5.97521 -2.59488,-11.25175 -3.88789,-16.52826 -3.21354,-14.06146 -6.42709,-28.12291 -9.87856,-43.2256 -3.72658,8.51059 -6.79761,16.25463 -10.45545,23.71077 -5.86624,11.958 -11.21522,24.31592 -18.45159,35.41699 -8.19107,12.56563 -20.06834,20.86538 -35.99471,20.87427 -106.72405,0.0594 -213.44809,0.0463 -320.172132,0.0543 -2.195121,1.8e-4 -4.394913,0.0568 -6.584429,-0.0621 -5.213834,-0.28313 -8.875788,-3.90185 -8.769112,-8.5563 0.109076,-4.75907 3.729052,-7.85113 9.179245,-7.84643 30.058178,0.0257 60.116368,0.0667 90.174548,0.0723 83.42045,0.0157 166.84093,-0.0106 250.26126,0.10267 4.21909,0.006 7.10912,-1.02294 9.8298,-4.48636 15.29152,-19.46625 25.29823,-41.65534 34.73839,-64.30973 5.14661,-12.35075 3.16083,-24.86845 3.75629,-37.37209 0.20061,-4.21274 0.0123,-8.44255 0.0924,-12.66285 0.0805,-4.24389 2.23404,-7.74686 6.33885,-7.86861 4.6754,-0.13867 9.63627,0.776 13.98175,2.48334 1.64059,0.64458 3.35716,5.39239 2.5827,7.24045 -11.02087,26.30074 -4.20295,52.20159 1.67842,77.96766 2.64979,11.6087 7.24719,22.76429 10.72014,34.19856 1.12633,3.70834 3.04699,4.84334 6.89901,4.83765 68.39104,-0.10115 136.78224,-0.0522 205.17345,-0.0377 18.21817,0.004 36.43633,5.6e-4 55.73263,5.6e-4 -4.26177,5.73993 -8.02212,10.80457 -12.42828,16.11846 -1.31846,0.20243 -1.99124,0.11487 -2.66396,0.11462 -63.65306,-0.0253 -127.30617,-0.0597 -190.95923,-0.0535 -20.93062,0.002 -41.86121,0.11054 -62.79183,0.17032 -0.39506,-0.0287 -0.79015,-0.0573 -1.79889,-0.26698 -3.17909,-1.22465 -5.74454,-2.26828 -8.30995,-3.31187 0,0 -0.15902,-0.27827 -0.38916,-0.6795 -2.35993,-3.6561 -4.48966,-6.91098 -6.61944,-10.16588 -0.0179,-0.3863 -0.036,-0.77265 -0.0372,-1.76824 -0.28264,-1.18298 -0.58196,-1.75672 -0.8813,-2.33047 z"
     id="path8"
     style="stroke-width:1.0135" /><path
     fill="#e57c79"
     opacity="1"
     stroke="none"
     d="m 857.17894,276.74634 c -0.40557,0.30986 -0.81103,0.61971 -2.39432,1.19536 -46.59088,0.31227 -92.00433,0.38555 -137.41703,0.3278 -2.32981,-0.003 -4.6541,-1.1294 -6.98102,-1.73277 14.1763,-11.87726 34.02806,-15.91508 61.28865,-14.74205 31.33602,1.34839 63.05605,0.31301 96.1323,0.31301 -2.92727,4.22522 -5.51517,7.96076 -8.76576,12.18289 -1.06267,1.14299 -1.46274,1.79938 -1.86282,2.45576 z"
     id="path10"
     style="stroke-width:1.4099" /><path
     fill="#393939"
     opacity="1"
     stroke="none"
     d="m 923.13339,263.29033 c -0.18137,0.15944 -0.55859,0.10054 -1.13251,-0.18187 0.18113,-0.16111 0.5589,-0.0988 1.13251,0.18187 z"
     id="path296"
     style="stroke-width:1.0135" /><path
     fill="#71b085"
     opacity="1"
     stroke="none"
     d="m 548.8195,418.90505 c -1.09639,0.12919 -2.62443,0.24741 -4.44977,0.18542 1.14124,-0.18558 2.5797,-0.19095 4.44977,-0.18542 z"
     id="path340"
     style="stroke-width:1.0135" /><path
     fill="#71b085"
     opacity="1"
     stroke="none"
     d="m 555.90675,418.9134 c -1.09447,0.12888 -2.6196,0.24549 -4.44222,0.18382 1.13889,-0.18425 2.57519,-0.19019 4.44222,-0.18382 z"
     id="path342"
     style="stroke-width:1.0135" /><path
     d="m 311.46141,40.842366 c -6.08733,1.131773 -10.14555,3.601091 -15.62416,9.362838 -6.08734,6.48196 -8.72518,11.832147 -9.94264,20.371879 -1.72474,12.346591 -9.63827,31.278037 -33.88615,80.664407 -8.2179,16.97657 -19.37801,38.78889 -24.65371,48.56328 -10.24699,19.13722 -11.46446,23.14986 -7.5077,27.1625 2.43494,2.46932 3.24657,2.46932 6.89898,0.61734 4.26114,-2.26355 5.78296,-4.52709 9.84119,-15.0217 3.34803,-8.53973 28.10318,-61.21853 29.42211,-62.55607 1.01455,-1.13177 18.16054,8.43683 26.17553,14.50724 16.13142,12.3466 44.43752,42.08131 54.27871,57.103 3.75385,5.76174 9.23246,9.46572 13.79795,9.46572 3.55095,0 6.08733,-4.01264 5.17424,-8.33395 -1.42038,-6.27618 -47.98848,-56.58855 -66.14902,-71.40447 l -6.29024,-5.14442 10.14554,-4.83574 c 17.75474,-8.53973 30.33522,-19.44589 38.75603,-33.85024 8.31935,-14.198583 10.44991,-30.969372 5.78297,-43.624638 -3.24658,-8.436842 -13.49359,-19.034334 -20.79839,-21.400761 -7.10189,-2.263548 -10.55139,-2.572208 -15.42124,-1.646215 z m 9.63828,16.56502 c 12.98631,8.128177 15.31978,28.911605 5.07277,45.991064 -6.3917,10.59749 -21.40712,22.8412 -35.00217,28.39716 -6.5946,2.6751 -14.50814,3.90975 -16.02997,2.36643 -1.01455,-1.02888 14.60959,-31.27804 26.68281,-51.547031 10.04409,-16.873675 12.17466,-22.120984 11.05865,-26.545177 -0.50727,-1.851986 -0.20291,-2.057766 2.13057,-1.440435 1.52183,0.411552 4.26114,1.646216 6.08734,2.777989 z"
     id="path4-3"
     style="fill:#000000;stroke:none;stroke-width:0.102169" /><path
     d="m 585.89865,76.853264 c -4.76842,2.469322 -5.98589,4.835758 -9.33391,19.342996 -2.63784,11.21482 -21.30567,63.37918 -24.34933,68.31782 -0.81165,1.23467 -2.23203,4.83576 -3.14513,7.92241 -0.91309,3.08664 -5.58005,16.56501 -10.247,29.94049 -8.62372,24.59029 -9.73974,29.52892 -7.00044,31.79247 1.62329,1.44044 13.29067,0.51445 14.30524,-1.13177 0.30436,-0.51444 3.14511,-0.92599 6.49315,-0.92599 12.98631,0 32.46577,-8.95128 45.65499,-20.98922 13.08777,-12.03792 21.50857,-29.42604 19.68238,-41.25819 -2.13057,-14.40437 -14.91397,-22.63544 -34.29197,-21.91521 -5.37715,0.20578 -9.73973,0 -9.73973,-0.41155 0,-2.36644 15.62414,-35.08491 24.85659,-52.061475 4.66696,-8.642609 4.66696,-12.655266 0.10147,-17.285226 -4.05823,-4.115533 -7.3048,-4.424208 -12.98631,-1.337555 z m 14.40669,84.882836 c 11.46446,3.39531 13.89941,10.4946 8.11643,22.94409 -3.95676,8.43684 -9.84119,15.53613 -17.65326,21.0921 -12.68194,9.15705 -22.32022,12.34658 -33.48032,11.31771 l -6.89898,-0.72022 0.60873,-3.90975 c 0.30437,-2.16066 1.62329,-7.20219 2.94221,-11.31772 1.82621,-6.07041 2.84076,-7.81951 5.27569,-9.15705 3.75385,-2.16066 7.60916,-7.71662 7.60916,-11.11194 0,-4.42419 2.23203,-10.18594 5.27569,-13.9928 5.07277,-6.27619 17.14599,-8.43685 28.20465,-5.14442 z"
     id="path6-6"
     style="fill:#000000;stroke:none;stroke-width:0.102169" /><path
     d="m 667.36745,158.54656 c -12.07322,5.76175 -23.94351,22.8412 -28.61047,41.36109 -2.23201,9.05418 -2.33347,10.70038 -0.81164,17.79967 3.95676,18.62279 25.5668,21.60655 48.90156,6.89352 25.56681,-16.25634 36.32109,-41.36109 23.84206,-55.86833 -3.85531,-4.4242 -6.79751,-5.96753 -14.6096,-8.02529 -3.24657,-0.82311 -7.81208,-2.16066 -10.04409,-3.08665 -6.08734,-2.36643 -12.37759,-2.05776 -18.66782,0.92599 z m 38.04582,16.46214 c 7.60918,5.04152 4.36259,18.00544 -7.50771,29.94048 -12.37757,12.44948 -29.01629,19.44588 -37.13272,15.74191 -6.49316,-3.08665 -7.81209,-18.31411 -1.72475,-20.57766 4.15968,-1.64621 8.11645,-6.07041 9.33391,-10.39171 1.72474,-6.79063 10.44992,-13.78704 19.88528,-16.25635 5.17424,-1.23467 14.10232,-0.51444 17.14599,1.54333 z"
     id="path8-7"
     style="fill:#000000;stroke:none;stroke-width:0.102169" /><path
     d="m 813.56488,219.6622 c -27.08863,10.18594 -58.94567,47.94595 -83.90373,99.39008 -12.07321,25.00186 -19.27656,44.34486 -25.3639,68.93515 -12.58048,50.20948 -13.39211,90.33592 -2.13056,107.62115 9.43538,14.50724 29.21921,16.25635 48.59721,4.3213 3.24658,-1.95487 10.75429,-7.20217 16.74016,-11.52348 5.98588,-4.32131 17.146,-11.93504 24.75516,-16.87369 7.60916,-4.93863 15.52269,-10.90615 17.55181,-13.1697 4.36258,-4.93863 4.56549,-8.43683 0.30436,-8.95127 -2.13057,-0.30867 -6.79752,2.57221 -20.79838,12.44948 -9.94265,6.99641 -21.81295,15.53613 -26.37845,18.93144 -22.72604,17.07947 -36.0167,19.65166 -46.56809,9.05417 -6.49316,-6.58485 -8.62372,-14.50724 -9.23245,-33.54157 -1.31893,-39.71488 11.46447,-90.64458 33.88615,-134.68077 8.31935,-16.35923 24.04497,-41.05242 30.94393,-48.46038 2.43494,-2.5722 8.52227,-9.36284 13.59505,-14.9188 15.21833,-16.77079 30.23375,-26.03073 43.72733,-26.95673 9.43537,-0.61733 15.42125,1.13177 20.7984,5.96753 4.05822,3.60108 4.26113,4.11553 4.66695,10.3917 0.71019,11.00905 -5.27569,25.5163 -14.81251,36.21668 -11.97175,13.2726 -14.30523,19.44588 -7.71062,20.06321 3.75386,0.41155 7.71062,-2.67509 12.88486,-9.87726 5.68151,-7.81952 14.50814,-25.00186 15.92851,-30.96938 1.62329,-6.89352 0.81165,-20.68054 -1.42037,-26.13363 -2.63785,-6.27618 -9.02955,-12.44947 -16.13144,-15.74191 -8.52226,-3.90975 -21.81294,-4.52708 -29.92938,-1.54332 z"
     id="path10-5"
     style="fill:#000000;stroke:none;stroke-width:0.102169" /><path
     d="m 906.19378,322.34471 c -4.36258,2.26354 -11.56592,9.46572 -13.69649,13.68414 -0.9131,1.95488 -3.24658,8.95128 -4.97132,15.43324 -6.18878,22.32676 -21.50857,60.49832 -39.87204,98.97853 -8.11643,16.87368 -9.13099,19.54879 -8.52226,22.8412 0.9131,5.04153 4.56551,7.51084 8.62372,5.76174 4.86987,-1.95486 6.89898,-5.14441 10.7543,-16.46212 5.68151,-16.46212 17.95763,-45.37373 19.47946,-45.99106 2.43493,-0.92599 15.01542,8.64261 25.76971,19.54877 10.44991,10.59749 23.13186,26.75096 28.40755,36.31957 2.23202,4.01264 4.15967,5.96751 7.40625,7.51084 2.33348,1.23465 5.07279,2.16066 5.98587,2.16066 3.04367,0 5.78297,-3.80687 5.78297,-8.0253 0,-3.60108 -1.52182,-5.96751 -14.91395,-22.94407 -8.31937,-10.39173 -19.78384,-23.87009 -25.56681,-30.04339 -5.78297,-6.07041 -10.34846,-11.21482 -10.14554,-11.4206 0.2029,-0.20577 3.24657,-1.85199 6.79751,-3.70397 25.05951,-13.37548 39.87203,-46.29974 30.33521,-67.39183 -3.34804,-7.30507 -8.82664,-13.37548 -14.4067,-16.05057 -4.97132,-2.36643 -13.08776,-2.46933 -17.24744,-0.20578 z m 12.37759,20.06322 c 3.95677,5.96751 4.46405,17.18234 1.42037,25.61918 -3.14512,8.43684 -9.43536,16.6679 -16.74016,22.01808 -6.49316,4.62998 -16.43579,9.56862 -17.45035,8.53974 -0.81165,-0.82311 12.47903,-28.60294 19.58091,-40.94954 3.44949,-5.96752 6.89898,-12.75815 7.60917,-15.22746 0.71019,-2.36643 1.62329,-4.32131 2.02911,-4.32131 0.40582,0 2.02911,1.95488 3.55095,4.32131 z"
     id="path12-3"
     style="fill:#000000;stroke:none;stroke-width:0.102169" /><path
     d="m 1094.5967,324.50537 c -6.2902,2.36643 -10.3484,5.86462 -13.595,12.2437 l -2.3334,4.52708 2.4349,2.05776 c 2.1306,1.852 2.232,2.26355 1.2174,6.79064 -0.5072,2.77799 -2.232,13.27259 -3.6523,23.45853 -4.2612,30.14626 -16.3344,82.31062 -22.3204,97.02365 -3.1451,7.40795 -1.0145,15.63901 4.0583,15.63901 3.0436,0 8.015,-4.21841 9.4354,-7.92239 0.6087,-1.64622 2.6378,-10.4946 4.667,-19.85744 2.0291,-9.36284 5.8843,-25.92785 8.5222,-36.9369 l 4.7684,-19.96032 11.1601,-2.98376 c 15.1169,-4.01265 29.828,-11.4206 37.1328,-18.51989 9.7396,-9.46572 12.6818,-18.31412 9.6382,-28.91161 -5.4785,-19.03433 -32.7701,-33.23291 -51.1336,-26.64806 z m 22.3203,16.87367 c 8.1164,4.52708 12.1746,9.98017 12.1746,16.46213 0,2.57221 -0.7101,6.07041 -1.5218,7.71662 -3.9567,7.61374 -17.146,16.56501 -29.828,20.26899 -4.5654,1.33755 -5.3771,1.33755 -5.3771,0.10289 0,-0.82311 2.7394,-9.15706 6.1888,-18.72567 6.7975,-19.24011 7.1019,-22.12098 2.232,-27.36828 l -2.8408,-3.08665 6.2902,0.61733 c 4.667,0.41155 8.1165,1.54332 12.6821,4.01264 z"
     id="path14"
     style="fill:#000000;stroke:none;stroke-width:0.102169" /><path
     d="m 1184.3848,328.6209 c -5.0727,5.35019 -2.5363,11.4206 5.6816,13.68413 2.9422,0.82311 7.7106,0.61733 18.5664,-0.51444 13.4936,-1.54331 24.755,-2.05776 24.755,-1.33754 0,0.20578 -1.1159,4.11553 -2.4349,8.64262 -1.3188,4.52708 -3.8552,14.71302 -5.6814,22.53253 -2.7393,12.34659 -15.9286,60.80698 -28.1032,103.09405 -3.2466,11.42062 -3.551,13.06682 -2.435,16.66791 2.1306,7.09929 6.1889,7.51085 11.4645,1.13177 1.8263,-2.16066 3.0437,-5.65886 4.2612,-12.65525 4.667,-26.33941 17.6532,-71.09581 28.7119,-99.08142 10.4499,-26.64807 13.4936,-36.11379 12.8848,-39.50911 l -0.6087,-2.88087 10.5514,-0.72021 c 5.6815,-0.41157 18.2619,-0.61734 27.6973,-0.51444 13.4936,0.10287 18.0592,-0.20578 20.8999,-1.44044 2.0291,-0.82311 4.0583,-2.05777 4.3626,-2.6751 1.2173,-1.85199 -0.3043,-4.83575 -3.0436,-6.07041 -3.6525,-1.7491 -32.9732,-1.54332 -54.1773,0.41155 -26.3786,2.36643 -49.9162,2.46933 -56.105,0.1029 -2.6378,-0.926 -7.0004,-1.74911 -9.6383,-1.74911 -4.0582,0 -5.3772,0.51445 -7.6092,2.88088 z"
     id="path16-5"
     style="fill:#000000;stroke:none;stroke-width:0.102169" /><g
     id="g114483"
     transform="matrix(0.95241588,0,0,0.95241588,24.023352,8.2296865)"><ellipse
       style="fill:#666666;fill-opacity:1;stroke:#000000;stroke-width:6.29939;stroke-miterlimit:4;stroke-dasharray:none;stroke-opacity:1"
       id="path52"
       cx="487.83905"
       cy="31.725227"
       rx="33.500416"
       ry="27.422962"
       transform="rotate(6.6712154)" /><ellipse
       style="fill:#999999;fill-opacity:1;stroke:#000000;stroke-width:7.45994;stroke-miterlimit:4;stroke-dasharray:none;stroke-opacity:1"
       id="path52-3"
       cx="487.74707"
       cy="8.6133928"
       rx="41.867245"
       ry="30.772741"
       transform="rotate(6.6712154)" /></g></g></svg>
