<?xml version="1.0" encoding="UTF-8" standalone="no"?>
<svg
   version="1.1"
   id="Layer_1"
   x="0px"
   y="0px"
   width="100%"
   viewBox="0 0 1483 805"
   enable-background="new 0 0 1483 805"
   xml:space="preserve"
   sodipodi:docname="logo_traces_update.svg"
   inkscape:version="1.1.2 (0a00cf5339, 2022-02-04)"
   xmlns:inkscape="http://www.inkscape.org/namespaces/inkscape"
   xmlns:sodipodi="http://sodipodi.sourceforge.net/DTD/sodipodi-0.dtd"
   xmlns="http://www.w3.org/2000/svg"
   xmlns:svg="http://www.w3.org/2000/svg"><defs
   id="defs353"><linearGradient
     id="linearGradient943"
     inkscape:swatch="solid"><stop
       style="stop-color:#000000;stop-opacity:1;"
       offset="0"
       id="stop941" /></linearGradient><linearGradient
     id="linearGradient915"
     inkscape:swatch="solid"><stop
       style="stop-color:#000000;stop-opacity:1;"
       offset="0"
       id="stop913" /></linearGradient></defs><sodipodi:namedview
   id="namedview351"
   pagecolor="#ffffff"
   bordercolor="#666666"
   borderopacity="1.0"
   inkscape:pageshadow="2"
   inkscape:pageopacity="0.0"
   inkscape:pagecheckerboard="0"
   showgrid="false"
   inkscape:lockguides="false"
   inkscape:zoom="1"
   inkscape:cx="149.5"
   inkscape:cy="713.5"
   inkscape:window-width="3750"
   inkscape:window-height="2096"
   inkscape:window-x="90"
   inkscape:window-y="27"
   inkscape:window-maximized="1"
   inkscape:current-layer="Layer_1" />














































































































































































<g
   id="g67515"><path
     fill="#6792B9"
     opacity="1.000000"
     stroke="none"
     d=" M1306.000000,661.655640   C1115.368652,661.428467 925.237244,661.211670 735.105835,660.986633   C639.622864,660.873596 544.139893,660.747498 448.656952,660.611877   C446.329071,660.608521 443.926392,660.754883 441.689972,660.249756   C437.496552,659.302551 435.005310,656.599731 435.142059,652.076904   C435.279572,647.529358 438.012848,645.111084 442.221222,644.348450   C444.160919,643.996948 446.209167,644.221313 448.208160,644.223755   C684.331238,644.509827 920.454285,644.800049 1156.577393,645.089111   C1231.896851,645.181274 1307.216431,645.266663 1382.535889,645.382629   C1384.857422,645.386169 1387.226807,645.457703 1389.489258,645.915649   C1393.424683,646.712341 1395.548828,649.450012 1395.628174,653.363708   C1395.706543,657.238708 1393.816040,660.141296 1389.908325,661.155945   C1388.007690,661.649475 1385.963135,661.753479 1383.983765,661.753418   C1358.155884,661.752502 1332.327881,661.701233 1306.000000,661.655640  z"
     id="path4" /><path
     fill="#6792b9"
     opacity="1"
     stroke="none"
     d="m 569.30344,504.48318 c -112.73001,-0.22717 -225.16445,-0.44397 -337.59885,-0.66901 -56.46396,-0.11303 -112.92791,-0.23913 -169.391843,-0.37475 -1.376595,-0.003 -2.797422,0.143 -4.119931,-0.36212 -2.479784,-0.94721 -3.952981,-3.65003 -3.872114,-8.17286 0.08132,-4.54754 1.697645,-6.96582 4.186269,-7.72845 1.147044,-0.3515 2.358278,-0.12714 3.540383,-0.1247 139.631626,0.28608 279.263236,0.5763 418.894886,0.86536 44.54026,0.0922 89.08052,0.17755 133.62077,0.29352 1.37282,0.004 2.77397,0.0751 4.1119,0.53302 2.3272,0.79669 3.58329,3.53436 3.63025,7.44806 0.0461,3.875 -1.07165,6.77759 -3.38247,7.79223 -1.12393,0.49354 -2.333,0.59754 -3.50346,0.59748 -15.27335,-9.2e-4 -30.54675,-0.0522 -46.11579,-0.0978 z"
     id="path4-6"
     style="fill:#64c881;fill-opacity:1;stroke-width:0.768993" /><path
     fill="#E07A78"
     opacity="1.000000"
     stroke="none"
     d=" M973.204956,443.059875   C973.260193,443.442749 973.315430,443.825653 973.382202,444.882294   C974.095581,449.551941 974.797424,453.547882 975.499329,457.543793   C976.099609,457.524170 976.699829,457.504547 977.300110,457.484894   C977.970886,454.709534 978.641724,451.934143 979.312500,449.158752   C993.691895,418.356964 1007.659607,387.353363 1022.619751,356.836273   C1030.421387,340.921783 1045.367798,333.394501 1062.220703,333.311646   C1158.018555,332.840790 1253.820312,333.162872 1349.620728,333.242279   C1351.938965,333.244202 1354.300293,333.338348 1356.565308,333.780334   C1360.445312,334.537537 1362.657349,337.035309 1362.914795,341.043823   C1363.188477,345.309723 1361.016968,348.074310 1357.121704,349.309906   C1355.275635,349.895538 1353.194702,349.899231 1351.220093,349.898712   C1260.751343,349.875031 1170.282593,349.902802 1079.814087,349.708160   C1060.029175,349.665588 1044.924683,358.274109 1033.305054,373.510132   C1013.111267,399.988861 1000.205811,430.346893 987.697510,460.869080   C974.151917,493.922363 965.386719,528.132507 964.027710,563.947937   C963.657227,573.712463 964.518188,583.554199 965.303284,593.321167   C965.798157,599.477051 962.764282,606.305176 958.464172,606.776978   C954.197266,607.245117 949.176270,601.022522 949.412659,594.868225   C950.494446,566.702881 953.625305,538.819885 959.403809,511.157043   C961.581421,500.732635 960.802917,489.684143 961.301758,478.916870   C962.722229,448.252686 953.483643,420.517639 937.979431,394.531158   C930.147339,381.403961 920.532959,369.622437 908.575500,360.193329   C903.246948,355.991394 896.198120,353.970978 889.342407,350.638550   C888.098511,350.262665 887.442261,350.208679 886.786011,350.154663   C886.423035,350.119659 886.060120,350.084686 885.046997,349.839050   C882.249817,349.463409 880.103699,349.168365 877.955688,349.154266   C862.477234,349.052551 846.998352,349.007782 831.519653,348.944946   C831.670837,348.478821 831.822083,348.012695 832.187927,347.108521   C832.402527,346.670410 832.289734,346.396240 832.289734,346.396240   C832.827393,344.764679 833.365051,343.133087 834.148987,340.960388   C834.403076,339.917908 834.410828,339.416565 834.418579,338.915192   C834.584839,338.462585 834.751038,338.009979 835.130188,337.078644   C835.314392,336.069183 835.285583,335.538422 835.256836,335.007660   C835.319458,334.677002 835.382141,334.346344 835.808044,333.688171   C837.831299,333.214661 839.491394,333.068695 841.151428,332.922729   C857.080933,332.955322 873.010498,332.987915 889.799194,333.110046   C892.836304,333.462250 895.014099,333.724976 897.191956,333.987701   C897.191956,333.987701 897.407837,334.089874 897.721313,334.309814   C898.406982,334.587891 898.779175,334.646027 899.151367,334.704132   C912.371277,339.264679 924.656982,344.417175 933.021240,357.180389   C947.006470,378.520905 959.716553,400.343964 967.865601,424.617676   C968.499023,426.504303 969.015442,428.430206 969.757263,431.087830   C971.020508,435.578522 972.112732,439.319183 973.204956,443.059875  z"
     id="path6" /><path
     fill="#E77C79"
     opacity="1.000000"
     stroke="none"
     d=" M461.074036,330.857056   C461.055328,330.484833 461.036621,330.112579 461.009155,329.050964   C459.724609,323.155334 458.448853,317.949066 457.173065,312.742828   C454.002319,298.868652 450.831573,284.994476 447.426056,270.092926   C443.749115,278.490173 440.718994,286.131073 437.109863,293.487915   C431.321747,305.286652 426.044006,317.479980 418.904022,328.433197   C410.822052,340.831482 399.102966,349.020691 383.388702,349.029449   C278.086060,349.088074 172.783417,349.075195 67.480774,349.083069   C65.314888,349.083252 63.144394,349.139099 60.984039,349.021759   C55.839645,348.742401 52.226463,345.171875 52.331718,340.579407   C52.439342,335.883728 56.011105,332.832855 61.388710,332.837494   C91.046562,332.862915 120.704422,332.903320 150.362274,332.908905   C232.671692,332.924438 314.981140,332.898529 397.290436,333.010193   C401.453339,333.015839 404.304871,332.000885 406.989319,328.583588   C422.077179,309.376587 431.950623,287.483032 441.265045,265.130371   C446.343109,252.944107 444.383789,240.593124 444.971313,228.256012   C445.169250,224.099380 444.983551,219.925903 445.062469,215.761810   C445.141846,211.574448 447.266754,208.118134 451.316895,207.998001   C455.930023,207.861176 460.824829,208.763657 465.112427,210.448273   C466.731171,211.084259 468.424866,215.768829 467.660736,217.592285   C456.786652,243.542740 463.513763,269.098633 469.316803,294.521545   C471.931305,305.975616 476.467468,316.982635 479.894165,328.264618   C481.005493,331.923584 482.900574,333.043457 486.701294,333.037842   C554.181458,332.938080 621.661804,332.986359 689.142151,333.000641   C707.117676,333.004456 725.093201,333.001190 744.132507,333.001190   C739.927490,338.664673 736.217224,343.661865 731.869751,348.904968   C730.568848,349.104706 729.905029,349.018311 729.241272,349.018066   C666.435974,348.993225 603.630615,348.959137 540.825317,348.965240   C520.173462,348.967224 499.521637,349.074310 478.869781,349.133301   C478.479980,349.105011 478.090149,349.076721 477.094849,348.869873   C473.958099,347.661530 471.426819,346.631805 468.895569,345.602112   C468.895569,345.602112 468.738678,345.327545 468.511597,344.931671   C466.183105,341.324249 464.081726,338.112732 461.980316,334.901184   C461.962585,334.520020 461.944855,334.138824 461.943604,333.156494   C461.664734,331.989258 461.369385,331.423157 461.074036,330.857056  z"
     id="path8" /><path
     fill="#e57c79"
     opacity="1"
     stroke="none"
     d="m 833.88209,347.76551 c -0.40018,0.30573 -0.80024,0.61145 -2.36244,1.17944 -45.97036,0.30811 -90.77897,0.38041 -135.58685,0.32343 -2.29877,-0.003 -4.59211,-1.11435 -6.88804,-1.70969 13.9875,-11.71908 33.57486,-15.70312 60.47238,-14.54571 30.91868,1.33044 62.21625,0.30884 94.85196,0.30884 -2.88828,4.16894 -5.44171,7.85473 -8.64901,12.02063 -1.04851,1.12777 -1.44325,1.77542 -1.838,2.42306 z"
     id="path10"
     style="stroke-width:1.39112" /><path
     fill="#393939"
     opacity="1.000000"
     stroke="none"
     d=" M898.958130,334.488708   C898.779175,334.646027 898.406982,334.587891 897.840698,334.309265   C898.019409,334.150299 898.392151,334.211792 898.958130,334.488708  z"
     id="path296" /><path
     fill="#71B085"
     opacity="1.000000"
     stroke="none"
     d=" M529.629517,488.030884   C528.547729,488.158356 527.040039,488.274994 525.239014,488.213837   C526.365051,488.030731 527.784363,488.025421 529.629517,488.030884  z"
     id="path340" /><path
     fill="#71B085"
     opacity="1.000000"
     stroke="none"
     d=" M536.622375,488.039124   C535.542480,488.166290 534.037659,488.281342 532.239319,488.220490   C533.363037,488.038696 534.780212,488.032837 536.622375,488.039124  z"
     id="path342" /><path
     d="m 295.43267,115.00341 c -6.00626,1.1167 -10.01043,3.55313 -15.41607,9.23814 -6.00626,6.39563 -8.60897,11.67456 -9.81022,20.10056 -1.70177,12.18215 -9.50991,30.86146 -33.43484,79.59008 -8.10845,16.75047 -19.11992,38.27228 -24.32535,47.91649 -10.11053,18.88234 -11.31178,22.84154 -7.40772,26.80074 2.40251,2.43643 3.20334,2.43643 6.8071,0.60911 4.20438,-2.2334 5.70594,-4.46679 9.71012,-14.82163 3.30344,-8.42599 27.72889,-60.40319 29.03025,-61.72292 1.00104,-1.1167 17.91867,8.32447 25.82691,14.31403 15.91658,12.18216 43.84569,41.52085 53.5558,56.34248 3.70386,5.685 9.1095,9.33965 13.61419,9.33965 3.50365,0 6.00626,-3.9592 5.10532,-8.22296 -1.40146,-6.19259 -47.34934,-55.83488 -65.26801,-70.45347 l -6.20647,-5.0759 10.01043,-4.77134 c 17.51826,-8.42599 29.93119,-19.1869 38.23985,-33.39941 8.20855,-14.00948 10.31074,-30.55691 5.70595,-43.04362 -3.20334,-8.32448 -13.31388,-18.78083 -20.52139,-21.11574 -7.0073,-2.2334 -10.41085,-2.53795 -15.21585,-1.62429 z m 9.50991,16.3444 c 12.81335,8.01992 15.11575,28.52655 5.00521,45.37853 -6.30657,10.45635 -21.12201,22.53699 -34.53599,28.01896 -6.50678,2.63947 -14.31491,3.85768 -15.81648,2.33491 -1.00104,-1.01518 14.41502,-30.86146 26.32744,-50.8605 9.91032,-16.64895 12.01251,-21.82637 10.91137,-26.19164 -0.50052,-1.82732 -0.20021,-2.03036 2.10219,-1.42125 1.50156,0.40607 4.20438,1.62429 6.00626,2.74099 z"
     id="path4-3"
     style="fill:#000000;stroke:none;stroke-width:0.100809" /><path
     d="m 566.21483,150.5347 c -4.70491,2.43643 -5.90616,4.77135 -9.2096,19.08538 -2.60271,11.06546 -21.02191,62.53507 -24.02504,67.40793 -0.80083,1.21822 -2.20229,4.77135 -3.10323,7.81689 -0.90094,3.04554 -5.50574,16.34439 -10.11053,29.54173 -8.50887,24.26279 -9.61002,29.13565 -6.9072,31.36905 1.60167,1.42125 13.11366,0.50759 14.11471,-1.1167 0.30031,-0.50759 3.10323,-0.91366 6.40667,-0.91366 12.81335,0 32.03338,-8.83206 45.04694,-20.70967 12.91346,-11.8776 21.22211,-29.03414 19.42024,-40.7087 -2.10219,-14.21252 -14.71534,-22.33396 -33.83526,-21.62333 -5.30553,0.20304 -9.61001,0 -9.61001,-0.40607 0,-2.33492 15.41606,-34.61763 24.52555,-51.3681 4.6048,-8.5275 4.6048,-12.48671 0.10011,-17.05501 -4.00418,-4.06072 -7.20751,-4.36528 -12.81335,-1.31974 z m 14.21481,83.75233 c 11.31178,3.35009 13.71429,10.35483 8.00834,22.6385 -3.90407,8.32448 -9.71012,15.32922 -17.41815,20.81119 -12.51304,9.0351 -22.02295,12.18215 -33.03442,11.16698 l -6.80709,-0.71063 0.60062,-3.85768 c 0.30032,-2.13188 1.60167,-7.10626 2.90303,-11.16698 1.80188,-5.98956 2.80292,-7.71537 5.20542,-9.0351 3.70386,-2.13188 7.50782,-7.61385 7.50782,-10.96394 0,-4.36527 2.2023,-10.05028 5.20543,-13.80644 5.00521,-6.1926 16.91763,-8.32448 27.829,-5.0759 z"
     id="path6-6"
     style="fill:#000000;stroke:none;stroke-width:0.100809" /><path
     d="m 646.59859,231.13997 c -11.91242,5.68501 -23.62462,22.53699 -28.22942,40.81022 -2.20229,8.93359 -2.3024,10.55787 -0.80083,17.56261 3.90406,18.37476 25.22628,21.31878 48.25027,6.80171 25.22629,-16.03984 35.83735,-40.81023 23.52452,-55.12426 -3.80397,-4.36527 -6.70699,-5.88804 -14.41502,-7.9184 -3.20334,-0.81215 -7.70804,-2.13188 -9.91033,-3.04554 -6.00626,-2.33491 -12.21273,-2.03036 -18.41919,0.91366 z m 37.53911,16.24288 c 7.50783,4.97438 4.30449,17.76564 -7.40772,29.54172 -12.21272,12.28368 -28.62983,19.1869 -36.63817,15.53225 -6.40668,-3.04553 -7.70804,-18.07019 -1.70178,-20.30359 4.10428,-1.62429 8.00835,-5.98956 9.2096,-10.25331 1.70177,-6.70019 10.31074,-13.60341 19.62044,-16.03984 5.10532,-1.21822 13.9145,-0.50759 16.91763,1.52277 z"
     id="path8-7"
     style="fill:#000000;stroke:none;stroke-width:0.100809" /><path
     d="m 790.8489,291.44164 c -26.72785,10.05028 -58.16061,47.30738 -82.78627,98.06636 -11.91241,24.66887 -19.01982,43.75425 -25.02608,68.01704 -12.41293,49.54077 -13.21376,89.13278 -2.10219,106.1878 9.30971,14.31403 28.83005,16.03984 47.94997,4.26375 3.20334,-1.92884 10.61106,-7.10625 16.51721,-11.37001 5.90615,-4.26375 16.91763,-11.77608 24.42545,-16.64895 7.50782,-4.87286 15.31596,-10.7609 17.31805,-12.9943 4.30448,-4.87286 4.50469,-8.32447 0.30031,-8.83206 -2.10219,-0.30455 -6.70699,2.53795 -20.52138,12.28368 -9.81023,6.90322 -21.52243,15.32921 -26.02712,18.6793 -22.42337,16.85199 -35.53703,19.38993 -45.94788,8.93358 -6.40668,-6.49715 -8.50887,-14.31403 -9.10949,-33.09485 -1.30136,-39.18594 11.31178,-89.43734 33.43484,-132.88703 8.20855,-16.14135 23.72472,-40.50567 30.53181,-47.81496 2.4025,-2.53795 8.40876,-9.23814 13.41398,-14.72011 15.01564,-16.54743 29.83108,-25.68404 43.14495,-26.5977 9.30971,-0.60911 15.21586,1.11669 20.52139,5.88804 4.00417,3.55313 4.20438,4.06072 4.6048,10.25331 0.70073,10.86243 -5.20543,25.17646 -14.61523,35.73433 -11.81231,13.09582 -14.11471,19.18689 -7.60793,19.796 3.70386,0.40607 7.60793,-2.63947 12.71325,-9.74572 5.60584,-7.71537 14.31491,-24.66887 15.71637,-30.55691 1.60167,-6.80171 0.80084,-20.40511 -1.40146,-25.78557 -2.60271,-6.19259 -8.90928,-12.28367 -15.91658,-15.53225 -8.40876,-3.85768 -21.52243,-4.46679 -29.53077,-1.52277 z"
     id="path10-5"
     style="fill:#000000;stroke:none;stroke-width:0.100809" /><path
     d="m 882.24413,392.75658 c -4.30448,2.23339 -11.41189,9.33965 -13.51408,13.50189 -0.90094,1.92884 -3.20334,8.83206 -4.90511,15.22769 -6.10636,22.0294 -21.22211,59.69257 -39.341,97.66029 -8.00834,16.64895 -9.00938,19.28842 -8.40876,22.53699 0.90094,4.97438 4.5047,7.41081 8.50887,5.68501 4.80501,-1.92884 6.80709,-5.0759 10.61106,-16.24288 5.60584,-16.24287 17.71846,-44.76942 19.22002,-45.37853 2.40251,-0.91366 14.81544,8.52751 25.4265,19.28841 10.31074,10.45635 22.82378,26.39468 28.02921,35.83585 2.20229,3.9592 4.10427,5.88804 7.30761,7.41081 2.3024,1.21821 5.00522,2.13188 5.90615,2.13188 3.00313,0 5.70595,-3.75617 5.70595,-7.91841 0,-3.55312 -1.50156,-5.88804 -14.71533,-22.6385 -8.20856,-10.25332 -19.52034,-23.55217 -25.22629,-29.64325 -5.70595,-5.98956 -10.21064,-11.06546 -10.01043,-11.26849 0.20021,-0.20304 3.20334,-1.82733 6.70699,-3.65465 24.72576,-13.19734 39.34099,-45.68309 29.93119,-66.49427 -3.30345,-7.20778 -8.70908,-13.19734 -14.21482,-15.83681 -4.90511,-2.33491 -12.91345,-2.43643 -17.01773,-0.20303 z m 12.21273,19.796 c 3.90407,5.88804 4.40459,16.9535 1.40146,25.27798 -3.10324,8.32447 -9.3097,16.44591 -16.51721,21.72484 -6.40668,4.56831 -16.2169,9.44117 -17.21794,8.42599 -0.80084,-0.81214 12.31283,-28.22199 19.32013,-40.40415 3.40354,-5.88804 6.80709,-12.58823 7.50782,-15.02466 0.70073,-2.33491 1.60167,-4.26375 2.00209,-4.26375 0.40041,0 2.00208,1.92884 3.50365,4.26375 z"
     id="path12-3"
     style="fill:#000000;stroke:none;stroke-width:0.100809" /><path
     d="m 1068.1378,394.88846 c -6.2064,2.33491 -10.2106,5.78652 -13.4139,12.08063 l -2.3024,4.46679 2.4025,2.03036 c 2.1022,1.82733 2.2023,2.2334 1.2012,6.70019 -0.5005,2.74099 -2.2023,13.09582 -3.6037,23.1461 -4.2044,29.74476 -16.1168,81.21437 -22.023,95.73144 -3.1032,7.3093 -1.001,15.43073 4.0042,15.43073 3.0031,0 7.9082,-4.16223 9.3097,-7.81688 0.6006,-1.62429 2.6027,-10.35483 4.6048,-19.59297 2.0021,-9.23813 5.806,-25.58253 8.4087,-36.44495 l 4.7049,-19.69448 11.0115,-2.94403 c 14.9156,-3.9592 29.4307,-11.26849 36.6382,-18.27323 9.61,-9.33965 12.513,-18.0702 9.5099,-28.52655 -5.4056,-18.78082 -32.3337,-32.7903 -50.4526,-26.29315 z m 22.023,16.64894 c 8.0083,4.46679 12.0125,9.84725 12.0125,16.24288 0,2.53795 -0.7007,5.98956 -1.5016,7.61385 -3.904,7.51233 -16.9176,16.34439 -29.4306,19.99904 -4.5047,1.31973 -5.3056,1.31973 -5.3056,0.10151 0,-0.81214 2.7029,-9.0351 6.1064,-18.47627 6.707,-18.98386 7.0073,-21.82636 2.2023,-27.00378 l -2.8029,-3.04554 6.2064,0.60911 c 4.6048,0.40607 8.0084,1.52277 12.5131,3.9592 z"
     id="path14"
     style="fill:#000000;stroke:none;stroke-width:0.100809" /><path
     d="m 1156.7301,398.94917 c -5.0052,5.27894 -2.5026,11.2685 5.6059,13.50189 2.903,0.81215 7.6079,0.60911 18.3191,-0.50759 13.3139,-1.52276 24.4254,-2.03035 24.4254,-1.31973 0,0.20304 -1.1011,4.06072 -2.4025,8.52751 -1.3013,4.46679 -3.8039,14.51707 -5.6058,22.23244 -2.7028,12.18215 -15.7164,59.99712 -27.7289,101.721 -3.2033,11.2685 -3.5037,12.89278 -2.4025,16.44591 2.1022,7.00474 6.1064,7.41082 11.3118,1.1167 1.8019,-2.13188 3.0031,-5.58349 4.2044,-12.48671 4.6048,-25.9886 17.4181,-70.14892 28.3295,-97.7618 10.3107,-26.29316 13.3139,-35.63281 12.7132,-38.98291 l -0.6006,-2.8425 10.4108,-0.71062 c 5.6059,-0.40608 18.0188,-0.60911 27.3285,-0.50759 13.3139,0.10151 17.8186,-0.20304 20.6215,-1.42126 2.0021,-0.81214 4.0042,-2.03035 4.3045,-2.63946 1.2012,-1.82733 -0.3003,-4.77135 -3.0031,-5.98956 -3.6038,-1.72581 -32.5339,-1.52277 -53.4557,0.40607 -26.0272,2.33491 -49.2514,2.43643 -55.3577,0.10152 -2.6027,-0.91366 -6.9072,-1.72581 -9.5099,-1.72581 -4.0042,0 -5.3056,0.50759 -7.5079,2.8425 z"
     id="path16-5"
     style="fill:#000000;stroke:none;stroke-width:0.100809" /><g
     id="g1336"
     transform="matrix(0.38335731,0.04483889,-0.05224234,0.44665433,214.55901,91.381992)"
     inkscape:transform-center-x="6.5357992"
     inkscape:transform-center-y="-2.4974464"><ellipse
       style="fill:#808080;fill-opacity:1;stroke:#000000;stroke-width:9.11984;stroke-miterlimit:4;stroke-dasharray:none;stroke-opacity:1"
       id="path52"
       cx="660.60461"
       cy="93.741852"
       rx="52.3507"
       ry="36.780602" /><ellipse
       style="fill:#b3b3b3;fill-opacity:1;stroke:#000000;stroke-width:10.8;stroke-miterlimit:4;stroke-dasharray:none;stroke-opacity:1"
       id="path52-3"
       cx="659.96387"
       cy="66.065796"
       rx="65.424927"
       ry="41.273438" /></g></g></svg>
